#!OML:ASF F:\VICON\USERDATA\INSTALL\rory3\rory3.ASF
:FULLY-SPECIFIED
:DEGREES
457
root -0.316786 23.2362 7.66416 -135.948 39.324 -182.009
lowerback -23.2862 -4.41684 -6.97105
upperback -15.5446 -1.7131 3.00075
thorax -3.94025 1.1202 6.80427
lowerneck -16.9289 3.62861 8.87188
upperneck 39.4796 8.32782 -6.04777
head 18.3035 4.8917 -2.38348
rclavicle 8.69186e-014 5.68524e-014
rhumerus 94.3729 -40.8124 -57.6337
rradius 60.8394
rwrist -90.818
rhand -23.7276 14.91
rfingers 7.12502
rthumb 2.74046 -15.0521
lclavicle 8.69186e-014 5.68524e-014
lhumerus 73.0626 40.7481 21.0732
lradius 38.4031
lwrist -42.153
lhand -19.0596 18.1538
lfingers 7.12502
lthumb 7.24763 48.0097
rfemur 147.905 -186.924 -164.541
rtibia 43.7784
rfoot -15.1418 -33.1
rtoes 51.3516
lfemur -13.3921 -2.65521 -19.2857
ltibia 40.5335
lfoot 16.5818 42.2751
ltoes 35.1156
458
root -0.305192 23.2441 7.79409 -137.054 37.1786 -184.762
lowerback -23.3178 -5.34992 -8.31649
upperback -15.629 -2.59877 2.27024
thorax -3.86532 0.776546 6.57198
lowerneck -17.4084 3.8218 9.24291
upperneck 39.4182 8.299 -5.77398
head 18.3978 4.94908 -2.31489
rclavicle -3.99557e-014 -1.66979e-014
rhumerus 93.2761 -42.0275 -56.1181
rradius 59.4074
rwrist -90.994
rhand -23.9069 14.9305
rfingers 7.12502
rthumb 2.56731 -15.0338
lclavicle -3.99557e-014 -1.66979e-014
lhumerus 72.5816 40.8377 21.064
lradius 37.7308
lwrist -42.6949
lhand -17.8968 18.8079
lfingers 7.12502
lthumb 8.36992 48.6221
rfemur 145.057 -186.766 -165.249
rtibia 43.0661
rfoot -15.9961 -32.5993
rtoes 51.7359
lfemur -10.3516 -3.75071 -19.4208
ltibia 39.5316
lfoot 15.3267 43.7935
ltoes 37.2627
459
root -0.301423 23.2436 7.9096 -138.086 34.5571 -186.942
lowerback -23.0336 -6.13037 -8.88962
upperback -15.6492 -3.47876 1.67816
thorax -3.87849 0.374239 6.05369
lowerneck -17.5104 3.60393 8.89839
upperneck 39.3874 7.84272 -5.24231
head 18.291 4.78656 -2.09723
rclavicle -3.42779e-014 4.63168e-014
rhumerus 92.0982 -43.1759 -54.5219
rradius 58.0852
rwrist -90.6289
rhand -23.8559 14.0541
rfingers 7.12502
rthumb 2.61652 -15.9096
lclavicle -3.42779e-014 4.63168e-014
lhumerus 71.8074 40.7822 20.8989
lradius 36.8252
lwrist -43.2364
lhand -17.3972 19.3597
lfingers 7.12502
lthumb 8.85202 49.1541
rfemur 142.945 -186.691 -165.698
rtibia 41.9704
rfoot -16.8967 -32.7469
rtoes 51.8914
lfemur -6.92994 -5.04383 -18.8098
ltibia 38.449
lfoot 15.5931 44.6902
ltoes 38.6046
460
root -0.31109 23.2278 8.0218 -139.393 31.6963 -189.135
lowerback -21.9398 -6.92419 -9.68039
upperback -15.8523 -4.44297 1.31513
thorax -4.46751 -0.000957608 5.92478
lowerneck -17.2763 3.32918 8.41213
upperneck 39.461 7.57624 -4.93846
head 18.1892 4.68355 -1.9232
rclavicle -6.05424e-014 3.99557e-014
rhumerus 90.684 -43.9525 -52.4527
rradius 56.9755
rwrist -90.0739
rhand -23.668 12.6829
rfingers 7.12502
rthumb 2.79796 -17.2785
lclavicle -6.05424e-014 3.99557e-014
lhumerus 70.7179 40.3935 20.8729
lradius 35.9049
lwrist -43.364
lhand -16.9554 19.8081
lfingers 7.12502
lthumb 9.27836 49.5839
rfemur 141.577 -186.866 -166.595
rtibia 40.5693
rfoot -20.4994 -31.6543
rtoes 53.7215
lfemur -3.23814 -6.90179 -18.1282
ltibia 37.4171
lfoot 17.0522 44.8761
ltoes 37.9071
461
root -0.300024 23.2088 8.1505 -139.27 29.4063 -190.589
lowerback -21.7609 -7.67806 -10.0925
upperback -16.2523 -5.21813 1.02196
thorax -4.8855 -0.248243 5.67168
lowerneck -16.9567 3.27894 8.28913
upperneck 39.3902 7.50135 -4.64706
head 18.0278 4.69954 -1.78259
rclavicle -1.10263e-014 -5.52621e-014
rhumerus 88.4892 -44.6812 -49.7892
rradius 56.0793
rwrist -89.2672
rhand -23.9066 12.7477
rfingers 7.12502
rthumb 2.5676 -17.2165
lclavicle -1.10263e-014 -5.52621e-014
lhumerus 70.2456 40.198 21.3092
lradius 35.0732
lwrist -43.5175
lhand -15.8351 19.4544
lfingers 7.12502
lthumb 10.3593 49.1792
rfemur 139.232 -187.773 -167.852
rtibia 38.902
rfoot -23.2329 -31.0123
rtoes 54.5269
lfemur -0.752452 -7.91325 -17.0427
ltibia 36.5441
lfoot 22.7427 43.0154
ltoes 33.3554
462
root -0.29969 23.1695 8.2681 -139.382 26.8867 -192.01
lowerback -21.3756 -8.32552 -10.2782
upperback -16.5637 -5.94481 0.663279
thorax -5.33366 -0.506584 5.245
lowerneck -16.6512 3.09423 7.90944
upperneck 39.4164 7.22395 -4.1022
head 17.8772 4.63811 -1.5206
rclavicle -1.91175e-014 -2.04748e-014
rhumerus 85.7663 -45.338 -46.5047
rradius 55.2231
rwrist -87.9594
rhand -24.3943 12.8812
rfingers 7.12502
rthumb 2.09656 -17.0883
lclavicle -1.91175e-014 -2.04748e-014
lhumerus 69.8172 39.8389 21.8461
lradius 34.1263
lwrist -43.6097
lhand -15.0071 18.695
lfingers 7.12502
lthumb 11.1579 48.3783
rfemur 137.54 -189.024 -169.541
rtibia 37.1322
rfoot -26.3423 -30.5399
rtoes 54.6426
lfemur 1.85403 -9.2161 -15.8028
ltibia 35.7935
lfoot 28.0622 40.4605
ltoes 28.3762
463
root -0.303946 23.1135 8.38549 -139.445 24.1991 -193.416
lowerback -20.9891 -8.91601 -10.3357
upperback -16.7328 -6.63629 0.170151
thorax -5.6565 -0.786596 4.61423
lowerneck -16.7022 2.89549 7.65279
upperneck 39.4163 6.75507 -3.46799
head 17.796 4.5086 -1.27417
rclavicle -6.6158e-015 1.00386e-014
rhumerus 83.0597 -46.198 -43.4892
rradius 54.5401
rwrist -86.9709
rhand -24.1075 11.7069
rfingers 7.12502
rthumb 2.37356 -18.2597
lclavicle -6.6158e-015 1.00386e-014
lhumerus 69.6753 39.4853 22.6006
lradius 33.4501
lwrist -44.0153
lhand -14.4045 19.5955
lfingers 7.12502
lthumb 11.739 49.2466
rfemur 136.099 -190.095 -171.484
rtibia 35.3222
rfoot -30.8056 -29.0036
rtoes 56.0311
lfemur 4.30513 -10.8306 -14.4207
ltibia 35.1703
lfoot 29.214 40.179
ltoes 27.6338
464
root -0.310092 23.0422 8.50181 -139.519 21.6905 -195.15
lowerback -20.6709 -9.57858 -10.7151
upperback -16.7741 -7.36171 -0.475741
thorax -5.7989 -1.07594 3.9822
lowerneck -17.1783 2.70584 7.63034
upperneck 39.5462 6.17617 -2.85738
head 17.9134 4.35551 -1.09216
rclavicle -1.34482e-014 -1.96176e-014
rhumerus 80.7894 -47.119 -41.1665
rradius 54.002
rwrist -86.0234
rhand -23.2992 10.8513
rfingers 7.12502
rthumb 3.15415 -19.1051
lclavicle -1.34482e-014 -1.96176e-014
lhumerus 69.6247 39.2119 23.2711
lradius 32.722
lwrist -44.5318
lhand -14.3735 21.2408
lfingers 7.12502
lthumb 11.7689 50.8901
rfemur 134.804 -190.486 -173.907
rtibia 33.5711
rfoot -35.1073 -28.4806
rtoes 56.7811
lfemur 6.43872 -12.354 -13.2989
ltibia 34.6632
lfoot 28.7832 41.7428
ltoes 29.2564
465
root -0.315773 22.9567 8.62348 -139.55 19.3565 -197.01
lowerback -20.3676 -10.3294 -11.2731
upperback -16.8232 -8.15491 -1.10532
thorax -5.92813 -1.36894 3.44783
lowerneck -17.4297 2.49835 7.61678
upperneck 39.6134 5.68328 -2.45551
head 17.9589 4.21868 -0.995468
rclavicle 2.72894e-014 -1.23743e-014
rhumerus 79.3835 -47.7297 -39.8538
rradius 53.2513
rwrist -84.3462
rhand -22.4142 10.7586
rfingers 7.12502
rthumb 4.0088 -19.1834
lclavicle 2.72894e-014 -1.23743e-014
lhumerus 68.3632 38.7426 22.1763
lradius 32.0055
lwrist -43.5946
lhand -11.0056 18.5067
lfingers 7.12502
lthumb 15.0151 47.9422
rfemur 133.773 -190.858 -176.783
rtibia 31.8866
rfoot -39.7886 -26.4997
rtoes 58.1686
lfemur 8.25653 -13.3307 -12.0873
ltibia 34.267
lfoot 29.4587 42.4866
ltoes 29.6288
